#!OML:ASF E:\VariousWalksJay\Project 1\Capture day 1\Session 1\Actor2.ASF
:FULLY-SPECIFIED
:DEGREES
1421
root 2.94093 17.1845 2.58364 4.18334 -7.60279 -12.8102
lowerback 0.509084 -4.45778 11.0378
upperback 2.36532 -6.04889 1.74875
thorax 1.25281 -2.86898 -4.30185
lowerneck 1.27093 -12.9965 -13.2774
upperneck -7.28209 -17.3187 26.8616
head 1.46022 -9.06243 9.83049
rclavicle 1.37161e-014 -6.36111e-015
rhumerus -23.7446 8.88719 -91.9092
rradius 26.2407
rwrist 3.34823
rhand -12.3012 -6.72399
rfingers 7.12502
rthumb 13.7667 -36.2485
lclavicle 1.37161e-014 -6.36111e-015
lhumerus -18.1832 -10.0414 87.1449
lradius 30.2517
lwrist 9.19427
lhand -12.0757 -5.51624
lfingers 7.12502
lthumb 13.984 23.9934
rfemur -11.0104 -5.42367 34.056
rtibia 34.8508
rfoot -22.9081 -10.5757
rtoes -3.84773
lfemur -8.19004 17.5107 -2.40592
ltibia 41.0578
lfoot -35.4939 32.4566
ltoes 1.67074
1422
root 2.92381 17.1859 2.58217 4.18856 -7.80258 -12.8011
lowerback 0.533842 -4.43828 11.0652
upperback 2.37159 -6.02032 1.75034
thorax 1.24756 -2.85443 -4.31412
lowerneck 1.21079 -13.0008 -13.2689
upperneck -7.21894 -17.3306 26.8294
head 1.48605 -9.06085 9.81029
rclavicle -2.14687e-014 0
rhumerus -23.7488 8.33347 -91.6792
rradius 25.4487
rwrist 3.87472
rhand -12.2716 -6.71294
rfingers 7.12502
rthumb 13.7953 -36.2355
lclavicle -2.14687e-014 0
lhumerus -18.1923 -9.7939 87.0684
lradius 29.7808
lwrist 8.96819
lhand -12.0004 -5.48963
lfingers 7.12502
lthumb 14.0567 24.015
rfemur -10.9902 -5.33042 34.0915
rtibia 34.8429
rfoot -22.8452 -10.5122
rtoes -3.85222
lfemur -8.22891 17.752 -2.25759
ltibia 41.3219
lfoot -35.0346 32.358
ltoes 1.34485
1423
root 2.90746 17.1869 2.58028 4.18849 -8.00142 -12.7913
lowerback 0.568049 -4.41841 11.1005
upperback 2.38183 -5.99024 1.74958
thorax 1.24047 -2.83895 -4.33253
lowerneck 1.15035 -13.005 -13.2565
upperneck -7.166 -17.3402 26.7966
head 1.50816 -9.0587 9.78987
rclavicle 1.07344e-014 -2.78299e-014
rhumerus -23.7649 7.8033 -91.4491
rradius 24.6854
rwrist 4.40774
rhand -12.2408 -6.68874
rfingers 7.12502
rthumb 13.825 -36.2093
lclavicle 1.07344e-014 -2.78299e-014
lhumerus -18.2027 -9.52173 86.9843
lradius 29.2896
lwrist 8.71572
lhand -11.9111 -5.46053
lfingers 7.12502
lthumb 14.1427 24.0381
rfemur -10.9701 -5.23836 34.1226
rtibia 34.8426
rfoot -22.7826 -10.4463
rtoes -3.86491
lfemur -8.27732 17.9807 -2.1132
ltibia 41.6091
lfoot -34.5834 32.2643
ltoes 1.04139
1424
root 2.89191 17.1876 2.57797 4.1826 -8.19873 -12.779
lowerback 0.611834 -4.39853 11.1416
upperback 2.39632 -5.95909 1.74624
thorax 1.23188 -2.82275 -4.35616
lowerneck 1.08809 -13.0089 -13.2394
upperneck -7.12291 -17.3472 26.7618
head 1.52664 -9.05568 9.76862
rclavicle 1.04362e-014 0
rhumerus -23.7931 7.30236 -91.2206
rradius 23.9558
rwrist 4.93746
rhand -12.2069 -6.65444
rfingers 7.12502
rthumb 13.8576 -36.1728
lclavicle 1.04362e-014 0
lhumerus -18.2137 -9.21999 86.8914
lradius 28.7809
lwrist 8.43756
lhand -11.8067 -5.42947
lfingers 7.12502
lthumb 14.2433 24.0621
rfemur -10.9499 -5.14757 34.1473
rtibia 34.8504
rfoot -22.7213 -10.3785
rtoes -3.88606
lfemur -8.33726 18.198 -1.97476
ltibia 41.9217
lfoot -34.1364 32.1773
ltoes 0.762383
1425
root 2.87715 17.188 2.57522 4.1707 -8.39377 -12.7623
lowerback 0.66474 -4.37913 11.1857
upperback 2.41508 -5.92755 1.74044
thorax 1.22223 -2.8062 -4.38344
lowerneck 1.02264 -13.0123 -13.2175
upperneck -7.08871 -17.3513 26.7232
head 1.54169 -9.0514 9.74584
rclavicle 2.32578e-014 -7.95139e-015
rhumerus -23.8337 6.83709 -90.9955
rradius 23.2651
rwrist 5.4542
rhand -12.1682 -6.61255
rfingers 7.12502
rthumb 13.8949 -36.1283
lclavicle 2.32578e-014 -7.95139e-015
lhumerus -18.2252 -8.88268 86.7889
lradius 28.2573
lwrist 8.13432
lhand -11.6881 -5.39789
lfingers 7.12502
lthumb 14.3576 24.0856
rfemur -10.9299 -5.05725 34.1639
rtibia 34.8662
rfoot -22.6628 -10.3108
rtoes -3.91548
lfemur -8.41103 18.4051 -1.84401
ltibia 42.262
lfoot -33.6888 32.0979
ltoes 0.508732
1426
root 2.86315 17.1881 2.57207 4.15304 -8.58579 -12.7403
lowerback 0.725587 -4.36037 11.231
upperback 2.43788 -5.89601 1.73243
thorax 1.21211 -2.78949 -4.41326
lowerneck 0.954184 -13.0148 -13.1919
upperneck -7.06311 -17.3518 26.6809
head 1.55337 -9.04563 9.72179
rclavicle 4.18442e-014 2.54444e-014
rhumerus -23.8872 6.41251 -90.7752
rradius 22.6179
rwrist 5.94997
rhand -12.1219 -6.56555
rfingers 7.12502
rthumb 13.9395 -36.0783
lclavicle 4.18442e-014 2.54444e-014
lhumerus -18.2378 -8.50625 86.6764
lradius 27.7215
lwrist 7.80813
lhand -11.5578 -5.36603
lfingers 7.12502
lthumb 14.4831 24.1085
rfemur -10.9102 -4.96608 34.1722
rtibia 34.8898
rfoot -22.6085 -10.2464
rtoes -3.95164
lfemur -8.50118 18.6043 -1.72147
ltibia 42.6322
lfoot -33.2352 32.026
ltoes 0.280681
1427
root 2.84988 17.1878 2.56856 4.13003 -8.77365 -12.7127
lowerback 0.792478 -4.34255 11.2762
upperback 2.46469 -5.8651 1.72258
thorax 1.20258 -2.7729 -4.44462
lowerneck 0.882986 -13.016 -13.1631
upperneck -7.04575 -17.3486 26.6349
head 1.56174 -9.0382 9.69661
rclavicle 3.89618e-014 -1.43125e-014
rhumerus -23.954 6.03322 -90.5614
rradius 22.0189
rwrist 6.41933
rhand -12.0642 -6.51696
rfingers 7.12502
rthumb 13.9951 -36.0259
lclavicle 3.89618e-014 -1.43125e-014
lhumerus -18.2518 -8.08816 86.5533
lradius 27.1759
lwrist 7.45921
lhand -11.4202 -5.3336
lfingers 7.12502
lthumb 14.6157 24.1314
rfemur -10.8907 -4.87279 34.1726
rtibia 34.9203
rfoot -22.5601 -10.1889
rtoes -3.99213
lfemur -8.61015 18.7978 -1.60696
ltibia 43.0345
lfoot -32.7694 31.9609
ltoes 0.076157
1428
root 2.8373 17.1872 2.56475 4.10256 -8.95593 -12.6799
lowerback 0.863419 -4.32582 11.321
upperback 2.4949 -5.83526 1.71152
thorax 1.19418 -2.75666 -4.47684
lowerneck 0.81059 -13.0158 -13.1324
upperneck -7.03655 -17.3416 26.5858
head 1.56674 -9.02915 9.67085
rclavicle -6.30147e-014 1.35174e-014
rhumerus -24.035 5.70303 -90.3556
rradius 21.4723
rwrist 6.85769
rhand -11.9922 -6.46993
rfingers 7.12502
rthumb 14.0645 -35.974
lclavicle -6.30147e-014 1.35174e-014
lhumerus -18.2688 -7.62724 86.4197
lradius 26.6233
lwrist 7.0864
lhand -11.2809 -5.29853
lfingers 7.12502
lthumb 14.7499 24.1567
rfemur -10.8715 -4.77637 34.167
rtibia 34.9565
rfoot -22.5189 -10.1419
rtoes -4.03357
lfemur -8.74056 18.9874 -1.49895
ltibia 43.4708
lfoot -32.2859 31.9007
ltoes -0.106486
1429
root 2.82538 17.1862 2.5607 4.0717 -9.13082 -12.6438
lowerback 0.935891 -4.31044 11.366
upperback 2.52805 -5.80717 1.70008
thorax 1.18774 -2.74107 -4.50965
lowerneck 0.739009 -13.0138 -13.1011
upperneck -7.03567 -17.3304 26.5349
head 1.56818 -9.01849 9.64528
rclavicle 3.65764e-014 -8.74653e-015
rhumerus -24.1309 5.42521 -90.1596
rradius 20.9814
rwrist 7.26154
rhand -11.9033 -6.42787
rfingers 7.12502
rthumb 14.1502 -35.926
lclavicle 3.65764e-014 -8.74653e-015
lhumerus -18.2896 -7.12414 86.2756
lradius 26.0657
lwrist 6.68668
lhand -11.1464 -5.25856
lfingers 7.12502
lthumb 14.8794 24.1871
rfemur -10.8526 -4.67682 34.1577
rtibia 34.9965
rfoot -22.4866 -10.1082
rtoes -4.07112
lfemur -8.89473 19.1741 -1.39501
ltibia 43.9423
lfoot -31.781 31.8417
ltoes -0.26643
1430
root 2.81411 17.1848 2.55648 4.0387 -9.29635 -12.6064
lowerback 1.00755 -4.2966 11.4131
upperback 2.56369 -5.7814 1.68901
thorax 1.18395 -2.72636 -4.54329
lowerneck 0.669655 -13.0099 -13.0697
upperneck -7.04304 -17.3152 26.483
head 1.56606 -9.00641 9.6204
rclavicle 5.86415e-015 -1.11319e-014
rhumerus -24.2421 5.20191 -89.9747
rradius 20.5488
rwrist 7.62838
rhand -11.7957 -6.39373
rfingers 7.12502
rthumb 14.2538 -35.8846
lclavicle 5.86415e-015 -1.11319e-014
lhumerus -18.315 -6.57964 86.1211
lradius 25.5055
lwrist 6.25564
lhand -11.0223 -5.21066
lfingers 7.12502
lthumb 14.999 24.2261
rfemur -10.8337 -4.57504 34.1479
rtibia 35.0385
rfoot -22.4639 -10.0889
rtoes -4.10011
lfemur -9.07466 19.3578 -1.29217
ltibia 44.4498
lfoot -31.2518 31.779
ltoes -0.401792
1431
root 2.80348 17.1829 2.55213 4.00474 -9.45052 -12.5707
lowerback 1.07659 -4.28458 11.4642
upperback 2.60096 -5.75853 1.67941
thorax 1.18275 -2.71284 -4.57785
lowerneck 0.604604 -13.0042 -13.0394
upperneck -7.05807 -17.2964 26.4313
head 1.56045 -8.99314 9.59682
rclavicle 5.66536e-014 -5.56597e-015
rhumerus -24.3692 5.03521 -89.8024
rradius 20.1761
rwrist 7.95564
rhand -11.6688 -6.3699
rfingers 7.12502
rthumb 14.3761 -35.8521
lclavicle 5.66536e-014 -5.56597e-015
lhumerus -18.346 -5.99543 85.9566
lradius 24.9446
lwrist 5.78964
lhand -10.9137 -5.15141
lfingers 7.12502
lthumb 15.1036 24.2775
rfemur -10.8147 -4.47279 34.1406
rtibia 35.0801
rfoot -22.4514 -10.0837
rtoes -4.11678
lfemur -9.28162 19.5373 -1.18705
ltibia 44.993
lfoot -30.6972 31.7049
ltoes -0.503903
